<?xml version="1.0" encoding="UTF-8"?>
<svg id="Layer_1" xmlns="http://www.w3.org/2000/svg" version="1.1" viewBox="0 0 283.46 141.73">
  <!-- Generator: Adobe Illustrator 29.3.1, SVG Export Plug-In . SVG Version: 2.1.0 Build 151)  -->
  <path d="M23.483,51.93c.435.162.883.397,1.344.704.375.24.666.359.87.359.154,0,.273-.09.358-.269.084-.179.154-.465.205-.858h.588c-.085.991-.128,2.73-.128,5.223h-.589c-.102-1.382-.499-2.547-1.19-3.494-.691-.947-1.694-1.421-3.008-1.421-.921,0-1.673.277-2.253.832-.581.555-.87,1.267-.87,2.138,0,.648.149,1.212.448,1.689.298.478.678.888,1.139,1.228.461.342,1.118.777,1.971,1.306l.743.461c1.075.666,1.924,1.25,2.547,1.753.623.503,1.122,1.08,1.497,1.728.375.649.563,1.408.563,2.279,0,1.553-.512,2.752-1.536,3.596-1.024.845-2.321,1.268-3.891,1.268-.819,0-1.49-.086-2.01-.256-.52-.17-1.019-.401-1.497-.691-.375-.239-.666-.358-.87-.358-.154,0-.273.089-.359.269-.086.18-.153.465-.205.858h-.588c.068-.939.102-2.987.102-6.144h.589c.119,1.724.545,3.123,1.28,4.198.734,1.075,1.86,1.613,3.379,1.613.921,0,1.707-.286,2.355-.858.648-.571.973-1.421.973-2.547,0-.955-.32-1.767-.96-2.432-.64-.666-1.651-1.416-3.034-2.253-1.007-.615-1.821-1.16-2.445-1.639-.623-.477-1.131-1.053-1.523-1.728-.393-.673-.589-1.463-.589-2.368,0-1.434.461-2.53,1.382-3.289.922-.759,2.065-1.139,3.431-1.139.751,0,1.344.081,1.779.243" fill="#231f20"/>
  <path d="M41.262,52.48c-.614.034-1.062.102-1.344.205-.281.102-.473.298-.576.589-.102.291-.153.759-.153,1.408v12.697c0,.649.051,1.118.153,1.408.102.291.294.486.576.589.282.102.73.17,1.344.205v.512c-.785-.051-1.869-.077-3.251-.077-1.468,0-2.56.026-3.277.077v-.512c.614-.034,1.062-.102,1.344-.205.282-.103.474-.298.576-.589s.154-.759.154-1.408v-12.697c0-.649-.051-1.118-.154-1.408-.102-.291-.294-.486-.576-.589-.281-.103-.729-.17-1.344-.205v-.512c.717.051,1.809.077,3.277.077,1.366,0,2.449-.026,3.251-.077v.512Z" fill="#231f20"/>
  <path d="M55.18,52.48c-.614.034-1.062.102-1.344.205-.282.102-.473.298-.576.589-.103.291-.153.759-.153,1.408v12.697c0,.649.051,1.118.153,1.408.102.291.294.482.576.576.282.094.73.141,1.344.141h1.869c1.059,0,1.865-.149,2.42-.448.555-.298.96-.78,1.216-1.446.256-.666.444-1.629.563-2.893h.588c-.051.529-.077,1.229-.077,2.099,0,.973.06,2.065.18,3.277-1.161-.051-3.115-.077-5.863-.077-3.277,0-5.751.026-7.424.077v-.512c.615-.034,1.062-.102,1.344-.205.282-.103.474-.298.576-.589.102-.29.154-.759.154-1.408v-12.697c0-.649-.051-1.118-.154-1.408-.103-.291-.294-.486-.576-.589-.282-.103-.73-.17-1.344-.205v-.512c.717.051,1.809.077,3.277.077,1.365,0,2.449-.026,3.251-.077v.512Z" fill="#231f20"/>
  <path d="M81.981,51.968v.512c-.854.205-1.527.947-2.023,2.227l-6.016,15.514h-.41l-6.246-16.102c-.41-1.058-.999-1.604-1.767-1.638v-.512c.683.051,1.596.077,2.739.077,1.468,0,2.56-.025,3.277-.077v.512c-.649.034-1.114.115-1.395.243-.282.128-.423.363-.423.705,0,.29.102.691.308,1.203l4.634,12.313,4.172-10.829c.341-.921.512-1.621.512-2.099,0-.529-.183-.913-.55-1.152-.367-.239-.926-.367-1.677-.384v-.512c.973.051,1.955.077,2.944.077.768,0,1.408-.025,1.92-.077" fill="#231f20"/>
  <path d="M102.039,70.093c-1.161-.051-3.115-.077-5.863-.077-3.276,0-5.752.025-7.424.077v-.512c.615-.034,1.062-.102,1.344-.205.282-.103.474-.298.576-.589.102-.29.154-.759.154-1.408v-12.697c0-.649-.051-1.118-.154-1.408-.102-.29-.294-.486-.576-.588-.281-.103-.729-.171-1.344-.205v-.512c1.672.051,4.147.077,7.424.077,2.509,0,4.292-.025,5.351-.077-.12,1.126-.179,2.133-.179,3.02,0,.666.025,1.195.077,1.587h-.588c-.12-1.11-.274-1.933-.461-2.471-.188-.537-.503-.93-.947-1.178-.444-.247-1.119-.371-2.022-.371h-2.125c-.614,0-1.062.047-1.344.141-.282.095-.474.286-.576.576-.103.291-.153.759-.153,1.408v6.042h1.689c.597,0,1.059-.141,1.382-.422.324-.281.542-.614.653-.998.11-.384.2-.866.269-1.447l.077-.512h.589c-.051.717-.077,1.52-.077,2.407v1.229c0,.871.051,2.082.154,3.635h-.589c-.017-.119-.068-.534-.153-1.241-.086-.708-.32-1.242-.705-1.6-.384-.359-.918-.538-1.6-.538h-1.689v6.144c0,.649.051,1.118.153,1.408.102.291.294.482.576.576.282.094.73.141,1.344.141h1.869c1.058,0,1.864-.141,2.419-.422.555-.282.96-.734,1.216-1.357.256-.622.443-1.539.563-2.752h.589c-.051.461-.077,1.075-.077,1.844,0,.973.06,2.065.18,3.276" fill="#231f20"/>
  <path d="M125.324,68.812c-.392.58-.785.998-1.178,1.255-.393.256-.914.384-1.562.384-.7,0-1.276-.205-1.728-.614-.453-.41-.79-1.127-1.012-2.15l-.563-2.56c-.205-.887-.397-1.57-.576-2.048-.18-.477-.448-.861-.807-1.152-.358-.29-.862-.435-1.51-.435h-2.432v5.888c0,.649.051,1.118.153,1.408.103.291.295.486.576.589.281.102.729.17,1.344.205v.512c-.785-.051-1.869-.077-3.251-.077-1.468,0-2.56.025-3.277.077v-.512c.614-.034,1.062-.102,1.344-.205.281-.103.473-.298.576-.589.102-.29.153-.759.153-1.408v-12.697c0-.649-.051-1.118-.153-1.408-.103-.29-.295-.486-.576-.588-.282-.103-.73-.171-1.344-.205v-.512c.717.051,1.758.077,3.124.077l2.765-.025c.324-.017.691-.026,1.101-.026,1.98,0,3.503.414,4.57,1.242,1.066.828,1.6,1.898,1.6,3.212,0,.666-.158,1.335-.474,2.01-.316.674-.845,1.28-1.587,1.818-.742.537-1.711.9-2.906,1.088l.307.051c1.126.188,1.946.529,2.458,1.024.512.495.887,1.28,1.126,2.355l.64,2.611c.17.786.35,1.331.538,1.638.187.308.444.461.768.461.291,0,.533-.077.729-.23.196-.153.422-.4.679-.742l.384.281ZM114.662,52.659c-.265.119-.448.333-.551.64-.102.308-.153.769-.153,1.383v6.297h1.715c1.689,0,2.85-.375,3.481-1.126.631-.751.947-1.793.947-3.123,0-1.399-.332-2.458-.998-3.174-.666-.717-1.75-1.075-3.251-1.075-.528,0-.925.06-1.19.179" fill="#231f20"/>
  <path d="M138.999,51.93c.435.162.883.397,1.344.704.375.24.666.359.871.359.153,0,.272-.09.358-.269.085-.179.154-.465.205-.858h.589c-.085.991-.128,2.73-.128,5.223h-.589c-.102-1.382-.499-2.547-1.19-3.494-.691-.947-1.693-1.421-3.008-1.421-.922,0-1.673.277-2.253.832-.581.555-.87,1.267-.87,2.138,0,.648.149,1.212.448,1.689.298.478.678.888,1.139,1.228.461.342,1.118.777,1.971,1.306l.743.461c1.075.666,1.924,1.25,2.547,1.753.623.503,1.123,1.08,1.498,1.728.376.649.563,1.408.563,2.279,0,1.553-.512,2.752-1.536,3.596-1.024.845-2.321,1.268-3.891,1.268-.819,0-1.49-.086-2.01-.256-.52-.17-1.02-.401-1.497-.691-.375-.239-.666-.358-.871-.358-.153,0-.273.089-.358.269-.085.18-.153.465-.205.858h-.589c.068-.939.102-2.987.102-6.144h.588c.119,1.724.546,3.123,1.28,4.198.733,1.075,1.86,1.613,3.379,1.613.921,0,1.706-.286,2.355-.858.648-.571.973-1.421.973-2.547,0-.955-.32-1.767-.96-2.432-.64-.666-1.651-1.416-3.033-2.253-1.008-.615-1.822-1.16-2.445-1.639-.623-.477-1.131-1.053-1.523-1.728-.393-.673-.589-1.463-.589-2.368,0-1.434.461-2.53,1.382-3.289.922-.759,2.065-1.139,3.431-1.139.75,0,1.344.081,1.779.243" fill="#231f20"/>
  <path d="M166.135,52.685c-.281.102-.473.298-.576.588-.102.291-.153.76-.153,1.408v12.698c0,.649.052,1.118.153,1.408.103.291.295.486.576.589.281.102.73.17,1.344.205v.512c-.717-.051-1.809-.077-3.276-.077-1.383,0-2.466.025-3.251.077v-.512c.614-.034,1.062-.103,1.344-.205.281-.103.474-.298.576-.589.102-.29.154-.759.154-1.408v-6.144h-8.32v6.144c0,.649.051,1.118.153,1.408.102.291.294.486.575.589.281.102.73.17,1.344.205v.512c-.785-.051-1.868-.077-3.25-.077-1.469,0-2.56.025-3.277.077v-.512c.615-.034,1.062-.103,1.344-.205.281-.103.475-.298.576-.589.103-.29.154-.759.154-1.408v-12.698c0-.648-.052-1.117-.154-1.408-.101-.29-.295-.486-.576-.588-.281-.103-.729-.17-1.344-.205v-.512c.717.051,1.809.077,3.277.077,1.365,0,2.448-.025,3.25-.077v.512c-.613.034-1.062.102-1.344.205-.281.102-.473.298-.575.588-.102.291-.153.76-.153,1.408v6.042h8.32v-6.042c0-.648-.053-1.117-.154-1.408-.102-.29-.295-.486-.576-.588-.281-.103-.729-.17-1.344-.205v-.512c.785.051,1.868.077,3.251.077,1.468,0,2.56-.025,3.276-.077v.512c-.613.034-1.062.102-1.344.205" fill="#231f20"/>
  <path d="M190.723,69.581v.512c-.682-.051-1.596-.077-2.738-.077-1.469,0-2.561.025-3.277.077v-.512c.648-.034,1.113-.115,1.395-.243.283-.128.424-.363.424-.704,0-.29-.103-.691-.308-1.203l-1.561-4.198h-6.195l-1.049,2.713c-.343.921-.514,1.622-.514,2.099,0,.529.184.913.551,1.152.367.239.926.367,1.678.384v.512c-.973-.051-1.955-.077-2.944-.077-.768,0-1.407.025-1.921.077v-.512c.853-.205,1.527-.947,2.023-2.228l6.016-15.514h.41l6.246,16.103c.409,1.059.998,1.605,1.766,1.639M184.451,62.72l-2.867-7.654-2.918,7.654h5.785Z" fill="#231f20"/>
  <path d="M211.293,54.234c1.502,1.51,2.253,3.707,2.253,6.592,0,1.861-.367,3.491-1.101,4.889-.734,1.4-1.797,2.48-3.187,3.239-1.392.759-3.051,1.139-4.978,1.139l-1.486-.025c-.955-.035-1.654-.051-2.099-.051-1.399,0-2.457.025-3.175.077v-.512c.615-.034,1.063-.102,1.344-.205.283-.103.475-.298.577-.589.103-.29.153-.759.153-1.408v-12.697c0-.649-.051-1.118-.153-1.408-.102-.29-.294-.486-.577-.588-.281-.103-.728-.171-1.344-.205v-.512c.598.051,1.426.077,2.484.077l2.176-.025c1.16-.034,1.936-.051,2.33-.051,3.019,0,5.281.755,6.783,2.266M202.679,52.608c-.265.119-.448.333-.551.64-.102.307-.153.768-.153,1.382v12.8c0,.615.051,1.076.153,1.382.103.308.286.521.551.641.265.12.669.179,1.216.179,1.809,0,3.233-.328,4.275-.985,1.041-.657,1.77-1.617,2.188-2.88s.628-2.876.628-4.839-.23-3.562-.691-4.8c-.461-1.237-1.207-2.163-2.24-2.777-1.033-.614-2.428-.922-4.186-.922-.529,0-.926.06-1.19.179" fill="#231f20"/>
  <path d="M233.637,52.71c1.219.733,2.167,1.797,2.842,3.187.674,1.392,1.01,3.05,1.01,4.98,0,1.877-.346,3.541-1.036,4.992-.691,1.451-1.655,2.576-2.893,3.379-1.236.803-2.641,1.203-4.211,1.203-1.621,0-3.041-.367-4.262-1.101s-2.168-1.796-2.842-3.188c-.674-1.39-1.012-3.05-1.012-4.979,0-1.877.346-3.541,1.037-4.992.691-1.45,1.655-2.577,2.893-3.379,1.238-.802,2.642-1.203,4.212-1.203,1.621,0,3.042.367,4.263,1.101M226.391,53.209c-.828.76-1.467,1.822-1.919,3.187-.452,1.366-.679,2.928-.679,4.685,0,1.775.252,3.337.756,4.685.502,1.348,1.181,2.39,2.035,3.124.852.734,1.809,1.101,2.867,1.101,1.092,0,2.052-.38,2.879-1.139.828-.76,1.469-1.822,1.92-3.188.453-1.366.679-2.926.679-4.685,0-1.774-.251-3.336-.755-4.685-.504-1.348-1.182-2.389-2.035-3.123-.853-.734-1.809-1.101-2.867-1.101-1.093,0-2.053.38-2.881,1.139" fill="#231f20"/>
  <path d="M266.194,51.968v.512c-.956.221-1.63.964-2.022,2.227l-4.838,15.514h-.41l-4.455-13.184-4.07,13.184h-.408l-5.428-16.102c-.359-1.058-.947-1.604-1.767-1.638v-.512c.699.051,1.612.077,2.739.077,1.228,0,2.15-.025,2.765-.077v.512c-.461.034-.785.119-.973.256-.188.137-.282.35-.282.64,0,.272.094.691.282,1.254l3.737,11.417,3.123-9.908-.691-2.022c-.341-1.058-.844-1.604-1.51-1.638v-.512c.614.051,1.441.077,2.482.077,1.469,0,2.56-.025,3.276-.077v.512c-.647.034-1.101.106-1.355.217-.257.111-.384.346-.384.704,0,.307.084.717.256,1.229l3.686,11.392,3.149-9.907c.272-.836.409-1.527.409-2.074,0-.563-.17-.959-.512-1.19-.342-.23-.896-.355-1.664-.371v-.512c.973.051,1.954.077,2.943.077.769,0,1.408-.025,1.921-.077" fill="#231f20"/>
  <path d="M116.939,83.448c0,.375.174.683.52.921.347.239.867.418,1.56.535.755.133,1.335.365,1.737.703.402.336.603.789.603,1.356,0,.306-.064.59-.191.852-.129.264-.308.492-.537.686-.229.194-.502.349-.821.462-.319.115-.672.172-1.061.172-.416,0-.789-.059-1.118-.176-.329-.118-.618-.277-.863-.478-.247-.201-.446-.439-.599-.713-.152-.273-.257-.562-.312-.868l.686-.374c.097.639.334,1.121.712,1.451.378.328.869.493,1.472.493.297,0,.563-.04.795-.118.233-.081.428-.188.583-.323.157-.136.276-.29.359-.464.084-.172.125-.353.125-.54,0-.43-.173-.763-.52-.999-.348-.234-.835-.412-1.467-.529-.354-.062-.676-.15-.967-.261-.291-.11-.543-.247-.754-.41-.212-.163-.377-.359-.494-.589-.118-.229-.177-.494-.177-.801,0-.27.06-.52.177-.748.117-.229.282-.426.494-.593.211-.167.462-.296.754-.39.291-.094.61-.141.957-.141.652,0,1.208.16,1.669.479.461.318.782.742.962,1.268l-.624.354c-.16-.458-.411-.814-.754-1.071-.343-.256-.754-.385-1.233-.385-.236,0-.456.027-.66.084-.205.055-.382.137-.531.244-.149.107-.267.237-.353.39-.087.152-.131.327-.131.52" fill="#231f20"/>
  <polygon points="125.265 81.713 130.59 81.713 130.59 82.377 128.312 82.377 128.312 88.992 127.543 88.992 127.543 82.377 125.265 82.377 125.265 81.713" fill="#231f20"/>
  <path d="M140.185,86.549c0,.408-.066.774-.198,1.096-.132.323-.314.596-.546.816-.233.223-.514.391-.842.504-.33.116-.692.172-1.087.172s-.758-.056-1.087-.172c-.329-.113-.61-.281-.842-.504-.233-.221-.415-.493-.547-.816-.132-.321-.197-.688-.197-1.096v-4.838h.769v4.867c0,.271.043.522.13.754.086.233.211.433.374.6.162.166.361.298.598.395.236.098.503.146.801.146s.564-.048.801-.146c.236-.097.435-.228.599-.395.162-.167.287-.366.373-.6.087-.231.131-.482.131-.754v-4.867h.77v4.838Z" fill="#231f20"/>
  <path d="M145.16,81.713h1.965c.534,0,1.026.08,1.477.244.451.162.838.4,1.16.711.322.312.574.694.754,1.145.18.451.271.965.271,1.539s-.092,1.089-.271,1.539c-.18.452-.432.832-.754,1.145-.322.312-.709.55-1.16.713-.45.162-.942.244-1.477.244h-1.965v-7.279ZM147.062,88.326c.424,0,.813-.061,1.171-.182.356-.121.665-.303.925-.547.26-.242.465-.551.614-.926.149-.373.224-.814.224-1.32s-.074-.946-.224-1.32c-.149-.375-.354-.684-.614-.926-.26-.242-.568-.424-.925-.545-.358-.123-.747-.183-1.171-.183h-1.133v5.948h1.133Z" fill="#231f20"/>
  <rect x="155.491" y="81.711" width=".769" height="7.281" fill="#231f20"/>
  <path d="M167.952,85.352c0,.576-.089,1.096-.269,1.56-.181.465-.429.861-.743,1.191-.315.328-.686.584-1.107.764-.424.18-.877.269-1.363.269s-.939-.09-1.361-.269c-.424-.18-.793-.436-1.108-.764-.315-.33-.564-.726-.743-1.191-.18-.465-.271-.984-.271-1.56,0-.568.092-1.087.271-1.555.18-.469.428-.867.743-1.195.315-.329.685-.584,1.108-.764.422-.182.877-.272,1.361-.272s.939.09,1.363.272c.422.18.792.435,1.107.764.314.328.563.727.743,1.195.181.468.269.986.269,1.555M164.469,88.473c.382,0,.737-.075,1.066-.225.33-.148.615-.359.858-.635.242-.274.431-.603.566-.988.136-.384.203-.809.203-1.273s-.067-.889-.203-1.273c-.136-.385-.324-.715-.566-.988-.243-.273-.528-.484-.858-.635-.329-.148-.685-.223-1.066-.223-.388,0-.744.074-1.07.223-.326.15-.61.361-.853.635-.242.274-.432.604-.566.988-.135.385-.203.811-.203,1.273s.068.89.203,1.273c.135.386.324.715.566.988.243.275.527.486.853.635.326.149.683.225,1.07.225" fill="#231f20"/>
</svg>